<svg width="17" height="16" viewBox="0 0 17 16" fill="none" xmlns="http://www.w3.org/2000/svg">
<path fill-rule="evenodd" clip-rule="evenodd" d="M10.1255 0H9.02599C8.17402 0 7.47163 0.765864 7.33898 1.60744C7.14262 2.85315 6.57174 4.72007 5 6.83768V15.7445C5.279 15.8936 5.59751 15.9784 5.93582 15.9793L12.4042 15.9968C13.1448 15.9988 13.8193 15.5902 14.0909 14.9012C14.704 13.3462 15.531 10.8299 16.1363 8.92915C16.5438 7.64936 15.5848 6.35294 14.2417 6.35294H12.2045C11.6194 6.35294 11.1593 5.85292 11.2079 5.2699L11.5207 1.51626C11.5887 0.700037 10.9446 0 10.1255 0ZM3.5 15.8824V6.88235H1C0.447715 6.88235 0 7.33007 0 7.88235V14.8824C0 15.4346 0.447716 15.8824 1 15.8824H3.5Z" fill="#FD281A"/>
</svg>
