<svg width="20" height="20" viewBox="0 0 20 20" fill="none" xmlns="http://www.w3.org/2000/svg">
<mask id="path-1-inside-1" fill="white">
<path d="M12.1258 2H11.0262C10.1742 2 9.47184 2.76586 9.33919 3.60744C9.12137 4.98936 8.44262 7.13578 6.4479 9.54086C6.13123 9.92267 5.94145 10.3988 5.94145 10.8948L5.94142 15.9795C5.94141 17.082 6.83356 17.9764 7.93603 17.9793L14.4044 17.9968C15.145 17.9988 15.8195 17.5902 16.0911 16.9012C16.7042 15.3462 17.5312 12.8299 18.1365 10.9291C18.544 9.64936 17.5851 8.35294 16.2419 8.35294H14.2047C13.6196 8.35294 13.1595 7.85292 13.2081 7.2699L13.5209 3.51626C13.5889 2.70004 12.9448 2 12.1258 2Z"/>
</mask>
<path d="M13.5209 3.51626L12.2254 3.4083L13.5209 3.51626ZM13.2081 7.2699L14.5036 7.37786L13.2081 7.2699ZM14.4044 17.9968L14.4079 16.6968L14.4044 17.9968ZM7.93603 17.9793L7.93253 19.2793L7.93603 17.9793ZM6.4479 9.54086L5.44727 8.71095L5.44727 8.71095L6.4479 9.54086ZM9.33919 3.60744L10.6233 3.80985V3.80985L9.33919 3.60744ZM5.94142 15.9795L7.24142 15.9795V15.9795L5.94142 15.9795ZM5.94145 10.8948L7.24145 10.8948V10.8948L5.94145 10.8948ZM18.1365 10.9291L16.8978 10.5347V10.5347L18.1365 10.9291ZM16.0911 16.9012L17.3005 17.3781V17.3781L16.0911 16.9012ZM11.0262 3.3H12.1258V0.7H11.0262V3.3ZM12.2254 3.4083L11.9126 7.16194L14.5036 7.37786L14.8164 3.62422L12.2254 3.4083ZM14.2047 9.65294H16.2419V7.05294H14.2047V9.65294ZM14.4079 16.6968L7.93953 16.6793L7.93253 19.2793L14.4009 19.2968L14.4079 16.6968ZM7.44852 10.3708C9.60184 7.77447 10.3715 5.40763 10.6233 3.80985L8.05505 3.40503C7.87125 4.5711 7.28341 6.49709 5.44727 8.71095L7.44852 10.3708ZM7.24142 15.9795L7.24145 10.8948L4.64145 10.8948L4.64142 15.9795L7.24142 15.9795ZM16.8978 10.5347C16.2912 12.4395 15.4765 14.9159 14.8817 16.4244L17.3005 17.3781C17.9319 15.7766 18.7712 13.2203 19.3752 11.3236L16.8978 10.5347ZM5.44727 8.71095C4.95801 9.30086 4.64145 10.0645 4.64145 10.8948L7.24145 10.8948C7.24145 10.733 7.30445 10.5445 7.44852 10.3708L5.44727 8.71095ZM7.93953 16.6793C7.55353 16.6783 7.24142 16.3652 7.24142 15.9795L4.64142 15.9795C4.64141 17.7987 6.1136 19.2744 7.93253 19.2793L7.93953 16.6793ZM14.4009 19.2968C15.6144 19.3 16.8106 18.6204 17.3005 17.3781L14.8817 16.4244C14.8283 16.5599 14.6756 16.6975 14.4079 16.6968L14.4009 19.2968ZM16.2419 9.65294C16.7162 9.65294 17.035 10.104 16.8978 10.5347L19.3752 11.3236C20.0531 9.19476 18.4539 7.05294 16.2419 7.05294V9.65294ZM11.9126 7.16194C11.8009 8.50289 12.8591 9.65294 14.2047 9.65294V7.05294C14.3802 7.05294 14.5182 7.20295 14.5036 7.37786L11.9126 7.16194ZM12.1258 3.3C12.1843 3.3 12.2303 3.35 12.2254 3.4083L14.8164 3.62422C14.9476 2.05007 13.7054 0.7 12.1258 0.7V3.3ZM11.0262 0.7C9.37149 0.7 8.25963 2.1071 8.05505 3.40503L10.6233 3.80985C10.6459 3.66665 10.7232 3.51568 10.8291 3.41047C10.9312 3.30904 11.0045 3.3 11.0262 3.3V0.7Z" fill="#655E5E" mask="url(#path-1-inside-1)"/>
<path d="M2.65 9.88281C2.65 9.68951 2.8067 9.53281 3 9.53281H6.29412C6.48742 9.53281 6.64412 9.68951 6.64412 9.88281V16.8828C6.64412 17.0761 6.48742 17.2328 6.29412 17.2328H3C2.8067 17.2328 2.65 17.0761 2.65 16.8828V9.88281Z" stroke="#8E8787" stroke-width="1.3"/>
</svg>
